<?xml version="1.0" encoding="UTF-8" standalone="no"?>
<!DOCTYPE svg PUBLIC "-//W3C//DTD SVG 1.1//EN" "http://www.w3.org/Graphics/SVG/1.1/DTD/svg11.dtd">
<!-- Generated by Microsoft Visio, SVG Export switch3.svg Page-1 -->
<svg xmlns="http://www.w3.org/2000/svg" xmlns:xlink="http://www.w3.org/1999/xlink" xmlns:ev="http://www.w3.org/2001/xml-events"
		xmlns:v="http://schemas.microsoft.com/visio/2003/SVGExtensions/" width="4.35154in" height="5.33603in"
		viewBox="0 0 313.311 384.194" xml:space="preserve" color-interpolation-filters="sRGB" class="st7">
	<v:documentProperties v:langID="1036" v:metric="true" v:viewMarkup="false"/>

	<style type="text/css">
	<![CDATA[
		.st1 {fill:#ff00ff;fill-opacity:0;stroke:none;stroke-linecap:round;stroke-linejoin:round;stroke-width:0.24}
		.st2 {fill:url(#grad0-7);stroke:#ffffff;stroke-linecap:round;stroke-linejoin:round;stroke-width:0.72}
		.st3 {fill:url(#grad12-11);stroke:#ffffff;stroke-linecap:round;stroke-linejoin:round;stroke-width:0.72}
		.st4 {fill:url(#grad11-17);stroke:#000000;stroke-linecap:round;stroke-linejoin:round;stroke-width:0.72}
		.st5 {fill:#ff0000;stroke:#000000;stroke-linecap:round;stroke-linejoin:round;stroke-width:0.24}
		.st6 {stroke:#000000;stroke-linecap:round;stroke-linejoin:round;stroke-width:1.5}
		.st7 {fill:none;fill-rule:evenodd;font-size:12px;overflow:visible;stroke-linecap:square;stroke-miterlimit:3}
	]]>
	</style>

	<defs id="Patterns_And_Gradients">
		<linearGradient id="grad0-7" x1="0" y1="0" x2="1" y2="0" gradientTransform="rotate(270 0.5 0.5)">
			<stop offset="0" stop-color="#ffffff" stop-opacity="1"/>
			<stop offset="1" stop-color="#dfdfdf" stop-opacity="1"/>
		</linearGradient>
		<pattern id="grad12-11" x="0" y="0" width="1" height="1" patternContentUnits="objectBoundingBox">
			<path d="M 0 0 L 0 1 L 1 1 z" style="fill:url(#grad0-12)"/>
			<path d="M 0 0 L 1 0 L 1 1 z" style="fill:url(#grad0-13)"/>
		</pattern>
		<linearGradient id="grad0-12" x1="0" y1="0" x2="1" y2="0" gradientTransform="rotate(90 0.5 0.5)">
			<stop offset="0" stop-color="#ffffff" stop-opacity="1"/>
			<stop offset="1" stop-color="#a7a7a7" stop-opacity="1"/>
		</linearGradient>
		<linearGradient id="grad0-13" x1="0" y1="0" x2="1" y2="0" gradientTransform="rotate(360 0.5 0.5)">
			<stop offset="0" stop-color="#ffffff" stop-opacity="1"/>
			<stop offset="1" stop-color="#a7a7a7" stop-opacity="1"/>
		</linearGradient>
		<pattern id="grad11-17" x="0" y="0" width="1" height="1" patternContentUnits="objectBoundingBox">
			<path d="M 0 1 L 0 0 L 1 0 z" style="fill:url(#grad0-18)"/>
			<path d="M 0 1 L 1 1 L 1 0 z" style="fill:url(#grad0-19)"/>
		</pattern>
		<linearGradient id="grad0-18" x1="0" y1="0" x2="1" y2="0" gradientTransform="rotate(180 0.5 0.5)">
			<stop offset="0" stop-color="#ffffff" stop-opacity="1"/>
			<stop offset="1" stop-color="#c0c0c0" stop-opacity="1"/>
		</linearGradient>
		<linearGradient id="grad0-19" x1="0" y1="0" x2="1" y2="0" gradientTransform="rotate(90 0.5 0.5)">
			<stop offset="0" stop-color="#ffffff" stop-opacity="1"/>
			<stop offset="1" stop-color="#c0c0c0" stop-opacity="1"/>
		</linearGradient>
	</defs>
	<g v:mID="0" v:index="1" v:groupContext="foregroundPage">
		<title>Page-1</title>
		<v:pageProperties v:drawingScale="0.0393701" v:pageScale="0.0393701" v:drawingUnits="24" v:shadowOffsetX="8.50394"
				v:shadowOffsetY="-8.50394"/>
		<g id="group78-1" transform="translate(0.75,-22.4)" v:mID="78" v:groupContext="group">
			<v:custProps>
				<v:cp v:nameU="ShapeClass" v:lbl="ShapeClass" v:type="0" v:invis="true" v:ask="false" v:langID="1033"
						v:val="VT4(Equipment)"/>
				<v:cp v:nameU="ShapeType" v:lbl="ShapeType" v:type="0" v:invis="true" v:ask="false" v:langID="1033"
						v:val="VT4(Device)"/>
				<v:cp v:nameU="SubShapeType" v:lbl="SubShapeType" v:type="0" v:invis="true" v:ask="false" v:langID="1033"
						v:val="VT4(Etherswitch)"/>
				<v:cp v:nameU="Manufacturer" v:lbl="Manufacturer" v:type="0" v:sortKey="Equipment" v:invis="false" v:ask="false"
						v:langID="1033"/>
				<v:cp v:nameU="ProductNumber" v:lbl="Product Number" v:type="0" v:sortKey="Equipment" v:invis="false" v:ask="false"
						v:langID="1033"/>
				<v:cp v:nameU="PartNumber" v:lbl="Part Number" v:type="0" v:sortKey="Equipment" v:invis="false" v:ask="false"
						v:langID="1033"/>
				<v:cp v:nameU="ProductDescription" v:lbl="Product Description" v:type="0" v:sortKey="Equipment" v:invis="false"
						v:ask="false" v:langID="1033"/>
				<v:cp v:nameU="AssetNumber" v:lbl="Asset Number" v:type="0" v:sortKey="Asset" v:invis="false" v:ask="false"
						v:langID="1033"/>
				<v:cp v:nameU="SerialNumber" v:lbl="Serial Number" v:type="0" v:sortKey="Asset" v:invis="false" v:ask="false"
						v:langID="1033"/>
				<v:cp v:nameU="Location" v:lbl="Location" v:type="0" v:sortKey="Asset" v:invis="false" v:ask="false"
						v:langID="1033"/>
				<v:cp v:nameU="Building" v:lbl="Building" v:type="0" v:sortKey="Asset" v:invis="false" v:ask="false"
						v:langID="1033"/>
				<v:cp v:nameU="Room" v:lbl="Room" v:type="0" v:sortKey="Asset" v:invis="false" v:ask="false" v:langID="1033"/>
				<v:cp v:nameU="NetworkName" v:lbl="Network Name" v:type="0" v:sortKey="Network" v:invis="false" v:ask="false"
						v:langID="1033"/>
				<v:cp v:nameU="IPAddress" v:lbl="IP Address" v:type="0" v:sortKey="Network" v:invis="false" v:ask="false"
						v:langID="1033"/>
				<v:cp v:nameU="SubnetMask" v:lbl="Subnet Mask" v:type="0" v:sortKey="Network" v:invis="false" v:ask="false"
						v:langID="1033"/>
				<v:cp v:nameU="AdminInterface" v:lbl="Administrative Interface" v:type="0" v:sortKey="Network" v:invis="false"
						v:ask="false" v:langID="1033"/>
				<v:cp v:nameU="NumberOfPorts" v:lbl="Number of Ports" v:type="0" v:sortKey="Network" v:invis="false" v:ask="false"
						v:langID="1033"/>
				<v:cp v:nameU="MACAddress" v:lbl="MAC Address" v:type="0" v:sortKey="Network" v:invis="false" v:ask="false"
						v:langID="1033"/>
				<v:cp v:nameU="CommunityString" v:lbl="Community String" v:type="0" v:sortKey="Network" v:invis="false"
						v:ask="false" v:langID="1033"/>
				<v:cp v:nameU="NetworkDescription" v:lbl="Network Description" v:type="0" v:sortKey="Network" v:invis="false"
						v:ask="false" v:langID="1033"/>
			</v:custProps>
			<v:userDefs>
				<v:ud v:nameU="HasText" v:val="VT0(0):5"/>
				<v:ud v:nameU="ShapeClass" v:val="VT0(5):26"/>
				<v:ud v:nameU="ShapeType" v:val="VT0(8):26"/>
				<v:ud v:nameU="SubShapeType" v:val="VT0(23):26"/>
				<v:ud v:nameU="visLegendShape" v:val="VT0(2):26"/>
				<v:ud v:nameU="SolSH" v:val="VT15({BF0433D9-CD73-4EB5-8390-8653BE590246}):41"/>
				<v:ud v:nameU="visVersion" v:prompt="" v:val="VT0(15):26"/>
			</v:userDefs>
			<title>ATM/FastGB etherswitch</title>
			<g id="shape79-2" v:mID="79" v:groupContext="shape">
				<title>Sheet.79</title>
				<path d="M155.91 384.19 L311.81 294.86 L311.81 112.49 L155.91 23.15 L0 112.49 L0 294.86 L155.91 384.19 Z"
						class="st1"/>
			</g>
			<g id="shape80-4" v:mID="80" v:groupContext="shape" transform="translate(0,-182.374)">
				<title>Sheet.80</title>
				<path d="M155.91 384.19 L311.81 294.86 L155.91 205.52 L0 294.86 L155.91 384.19 Z" class="st2"/>
			</g>
			<g id="shape81-8" v:mID="81" v:groupContext="shape" transform="translate(155.906,0)">
				<title>Sheet.81</title>
				<path d="M0 384.19 L155.91 294.86 L155.91 112.49 L0 201.82 L0 384.19 Z" class="st3"/>
			</g>
			<g id="shape82-14" v:mID="82" v:groupContext="shape">
				<title>Sheet.82</title>
				<path d="M0 294.86 L155.91 384.19 L155.91 201.82 L0 112.49 L0 294.86 Z" class="st4"/>
			</g>
			<g id="shape83-20" v:mID="83" v:groupContext="shape" transform="translate(11.1416,-39.4063)">
				<title>Sheet.83</title>
				<path d="M22.27 191.3 L0 203.87 L22.27 241.96 L22.27 221.7 L38.98 231.27 L61.25 284.56 L38.98 312.33 L22.27 302.75
							 L22.27 282.49 L0 295.06 L22.27 333.15 L22.27 312.88 A328.19 303.494 -178.4 0 0 44.54 325.65 L66.81 297.88
							 L89.09 351.17 L111.36 363.93 L111.36 384.19 L133.63 371.63 L111.36 333.54 L111.36 353.8 L94.65 344.23
							 L72.38 290.94 L94.65 263.17 L111.36 272.74 L111.36 293.01 L133.63 280.44 L111.36 242.35 L111.36 262.61
							 L89.09 249.85 A492.903 455.821 -177.61 0 0 66.81 277.62 L44.54 224.33 L22.27 211.57 L22.27 191.3 Z"
						class="st5"/>
			</g>
			<g id="shape84-22" v:mID="84" v:groupContext="shape">
				<title>Sheet.84</title>
				<path d="M0 112.49 L0 294.86 L155.91 384.19 L311.81 294.86 L311.81 112.49 L155.91 23.15 L0 112.49" class="st6"/>
			</g>
			<g id="shape85-25" v:mID="85" v:groupContext="shape" transform="translate(165.911,-239.321)">
				<title>Sheet.85</title>
				<path d="M75.61 355.31 L71.11 381.62 L25.2 384.19 L45.91 372.33 L0 346.03 L9 340.87 L54.91 367.17 L75.61 355.31 Z"
						class="st5"/>
			</g>
			<g id="shape86-27" v:mID="86" v:groupContext="shape" transform="translate(207.818,428.801) rotate(180)">
				<title>Sheet.86</title>
				<path d="M75.61 355.31 L71.11 381.62 L25.2 384.19 L45.91 372.33 L0 346.03 L9 340.87 L54.91 367.17 L75.61 355.31 Z"
						class="st5"/>
			</g>
			<g id="shape87-29" v:mID="87" v:groupContext="shape" transform="translate(104.201,-203.835)">
				<title>Sheet.87</title>
				<path d="M75.61 355.31 L71.11 381.62 L25.2 384.19 L45.91 372.33 L0 346.03 L9 340.87 L54.91 367.17 L75.61 355.31 Z"
						class="st5"/>
			</g>
			<g id="shape88-31" v:mID="88" v:groupContext="shape" transform="translate(145.248,464.699) rotate(180)">
				<title>Sheet.88</title>
				<path d="M75.61 355.31 L71.11 381.62 L25.2 384.19 L45.91 372.33 L0 346.03 L9 340.87 L54.91 367.17 L75.61 355.31 Z"
						class="st5"/>
			</g>
		</g>
	</g>
</svg>
